<?xml version="1.0" encoding="UTF-8" standalone="no"?>
<!-- Created with Inkscape (http://www.inkscape.org/) -->
<!-- Source https://openclipart.org/detail/217511/house-icon -->

<svg
   xmlns:dc="http://purl.org/dc/elements/1.1/"
   xmlns:cc="http://creativecommons.org/ns#"
   xmlns:rdf="http://www.w3.org/1999/02/22-rdf-syntax-ns#"
   xmlns:svg="http://www.w3.org/2000/svg"
   xmlns="http://www.w3.org/2000/svg"
   xmlns:sodipodi="http://sodipodi.sourceforge.net/DTD/sodipodi-0.dtd"
   xmlns:inkscape="http://www.inkscape.org/namespaces/inkscape"
   width="128"
   height="128"
   id="svg3000"
   version="1.1"
   inkscape:version="0.48.4 r9939"
   sodipodi:docname="Novo documento 2">
  <defs
     id="defs3002" />
  <sodipodi:namedview
     id="base"
     pagecolor="#ffffff"
     bordercolor="#666666"
     borderopacity="1.0"
     inkscape:pageopacity="0.0"
     inkscape:pageshadow="2"
     inkscape:zoom="5.3268715"
     inkscape:cx="66.686218"
     inkscape:cy="65.528471"
     inkscape:document-units="px"
     inkscape:current-layer="layer1"
     showgrid="false"
     showborder="true"
     inkscape:showpageshadow="false"
     inkscape:window-width="1920"
     inkscape:window-height="1021"
     inkscape:window-x="0"
     inkscape:window-y="27"
     inkscape:window-maximized="1" />
  <metadata
     id="metadata3005">
    <rdf:RDF>
      <cc:Work
         rdf:about="">
        <dc:format>image/svg+xml</dc:format>
        <dc:type
           rdf:resource="http://purl.org/dc/dcmitype/StillImage" />
        <dc:title></dc:title>
      </cc:Work>
    </rdf:RDF>
  </metadata>
  <g
     inkscape:label="Camada 1"
     inkscape:groupmode="layer"
     id="layer1"
     transform="translate(0,-924.36218)">
    <path
       inkscape:connector-curvature="0"
       style="fill:#000000;fill-opacity:0.99914557;stroke:none"
       d="M 63.75,927.86217 0,984.26842 l 6.71875,7.5625 57.3125,-50.6875 57.28125,50.6875 6.6875,-7.5625 -63.75,-56.40625 -0.21875,0.28125 -0.28125,-0.28125 z m -44.6875,8.125 0,24.03125 16.03125,-14.46875 0.125,-9.5625 -16.15625,0 z m 44.96875,13.625 -44.96875,39.78125 0,56.81248 c 0,1.4695 1.18827,2.6563 2.65625,2.6563 l 28.09375,0 0,-24.9063 c 0,-1.4667 1.18551,-2.6562 2.65625,-2.6562 l 23.0625,0 c 1.47074,0 2.65625,1.1895 2.65625,2.6562 l 0,24.9063 28.09375,0 c 1.46798,0 2.65625,-1.1868 2.65625,-2.6563 l 0,-56.84373 -44.90625,-39.75 z"
       id="rect2986" />
  </g>
</svg>
